# xmcd
#
# Track frame offsets:
#	150
#	17815
#	36317
#	79367
#	96766
#	120541
#	141991
#	159208
#	186883
#	230454
#	253499
#	285882
#	297095
#	313689
#	334847
#
# Disc length: 4735 seconds
#
# Revision: 81176350
# Processed by: cddbd v1.5.2PL0 Copyright (c) Steve Scherf et al.
# Submitted via: EasyCDDAExtractor 2010.6.0.0
#
DISCID=d5127d0f
DTITLE=Various Artist - Blues Paradise vol.22
DYEAR=2000
DGENRE=Blues
TTITLE0=Vargas Blues Band - Coward's Knife
TTITLE1=Jon Tiven Group - Laugh
TTITLE2=Gari Moore - Surrender
TTITLE3=Creedence Clearwater Revival - It's Just A Thought
TTITLE4=Lonnie Shields - I Can't Let You Hurt Me
TTITLE5=Dave Meniketti - Man's World
TTITLE6=Moody Marsden - 2000 Miles
TTITLE7=Jimmi Vivno And The Rekooperators - Bird's Nest On Th Ground
TTITLE8=Lazy Poker Blues Band - I Got The Blues
TTITLE9=Ronnie D - Take It Easy Baby
TTITLE10=Van Wilks - Dialtone Blues
TTITLE11=Danny Morris Band - Mowglis Bounce
TTITLE12=The John Slaughter Band - Don't Fool Yourself
TTITLE13=Savoy Brown - Headline News
TTITLE14=Lucky Peterson - Tribute To Luther Allison
EXTD=YEAR: 2002
EXTT0=
EXTT1=
EXTT2=
EXTT3=
EXTT4=
EXTT5=
EXTT6=
EXTT7=
EXTT8=
EXTT9=
EXTT10=
EXTT11=
EXTT12=
EXTT13=
EXTT14=
PLAYORDER=
